<svg width="241" height="60" viewBox="0 0 241 60" fill="none" xmlns="http://www.w3.org/2000/svg">
<path d="M26.8326 32.1691V39.2513C26.8326 42.5929 24.1892 45.4856 20.8476 45.5854C17.3564 45.6851 14.4636 42.8423 14.4636 39.4009V15.9599C14.4636 11.9699 11.2218 8.72803 7.23182 8.72803H0V39.1017C0 50.4731 9.07719 59.8994 20.4486 59.9992C31.9198 60.0989 41.2962 50.8222 41.2962 39.3511V28.9771H30.0245C28.2789 28.9771 26.8326 30.3736 26.8326 32.1691Z" fill="white"/>
<path d="M45.785 0H34.4135C30.1742 0 26.7827 3.44135 26.7827 7.63082V7.78045V16.5584V19.1519C26.7827 19.2516 26.8825 19.2516 26.9323 19.2017C27.3313 18.3539 27.7802 16.5584 32.2191 16.5584H35.4609H45.785C50.0243 16.5584 53.4158 13.117 53.4158 8.92756V7.63082C53.4158 3.44135 49.9744 0 45.785 0Z" fill="url(#paint0_linear_0_352)"/>
<path d="M65.5854 37.7052C65.5854 41.0468 64.1889 42.6926 61.8448 42.6926C59.5506 42.6926 58.1541 41.0468 58.1541 37.7052V28.9272H55.7601V37.2064C55.7601 42.0942 57.5556 44.7874 61.795 44.7874C66.1341 44.7874 67.9295 42.0942 67.9295 37.2064V28.9272H65.5356V37.7052H65.5854Z" fill="white"/>
<path d="M76.508 33.0171C75.0616 33.0171 73.715 33.7652 72.8671 35.062L72.8173 33.2665H70.6228V44.5381H72.917V37.0569C73.6651 35.8599 74.8621 35.062 76.0591 35.062C76.9569 35.062 77.5553 35.4111 77.9045 35.9098C78.4032 36.7078 78.4531 37.8051 78.4531 38.8524V44.4883H80.7473V38.6529C80.7473 36.9572 80.5478 35.4609 79.7498 34.4136C79.0516 33.5158 78.0042 33.0171 76.508 33.0171Z" fill="white"/>
<path d="M92.0689 34.4634C91.1712 33.5158 89.8246 33.017 88.5777 33.017C85.2361 33.017 82.9917 35.8599 82.9917 38.9023C82.9917 42.194 85.3359 44.8373 88.5278 44.8373C89.8246 44.8373 91.3208 44.2388 92.1188 43.0917L92.1687 44.588H94.3632V27.8301H92.0689V34.4634ZM92.0689 40.7476C91.4704 42.0942 90.0739 42.7426 88.9268 42.7426C86.7323 42.7426 85.3857 40.9471 85.3857 38.9521C85.3857 37.1068 86.5328 35.1118 88.9767 35.1118C90.0739 35.1118 91.3208 35.6604 92.1188 36.7576V40.7476H92.0689Z" fill="white"/>
<path d="M102.293 33.0171C99.151 33.0171 96.6573 35.5607 96.6573 38.9522C96.6573 42.2938 98.752 44.8374 102.293 44.8374C104.587 44.8374 106.133 43.9895 107.281 42.1442L105.685 41.0968C104.986 42.3437 103.889 42.8923 102.393 42.8923C100.398 42.8923 99.151 41.3462 99.0014 39.5008H107.43C107.48 39.1517 107.53 38.6529 107.53 38.2539C107.53 35.2116 105.335 33.0171 102.293 33.0171ZM99.151 37.7053C99.55 36.1093 100.597 34.9123 102.343 34.9123C103.939 34.9123 105.036 36.1592 105.136 37.7053H99.151Z" fill="white"/>
<path d="M131.22 33.2666H128.926V44.5383H131.22V33.2666Z" fill="white"/>
<path d="M131.22 28.8276H128.926V31.2216H131.22V28.8276Z" fill="white"/>
<path d="M138.452 37.855C137.405 37.456 136.358 37.0071 136.358 36.2091C136.358 35.4111 137.006 34.8625 137.904 34.8625C138.702 34.8625 139.599 35.2615 140.148 35.7104L141.495 34.264C140.547 33.4162 139.25 32.9673 137.954 32.9673C136.008 32.9673 134.213 34.0645 134.213 36.3588C134.213 38.3537 135.909 39.052 137.355 39.6505C138.452 40.0994 139.5 40.4984 139.5 41.3462C139.5 42.3936 138.602 42.8923 137.604 42.8923C136.657 42.8923 135.859 42.4933 135.111 41.6455L133.614 42.9422C134.612 44.1392 136.058 44.7377 137.654 44.7377C139.799 44.7377 141.794 43.6903 141.794 41.1966C141.744 39.2515 139.899 38.4535 138.452 37.855Z" fill="white"/>
<path d="M150.223 33.0171C148.776 33.0171 147.43 33.7652 146.582 35.062L146.532 33.2665H144.337V44.5381H146.632V37.0569C147.38 35.8599 148.577 35.062 149.774 35.062C150.672 35.062 151.27 35.4111 151.619 35.9098C152.118 36.7078 152.168 37.8051 152.168 38.8524V44.4883H154.462V38.6529C154.462 36.9572 154.263 35.4609 153.465 34.4136C152.766 33.5158 151.719 33.0171 150.223 33.0171Z" fill="white"/>
<path d="M159.848 33.2666H157.554V44.5383H159.848V33.2666Z" fill="white"/>
<path d="M159.848 28.8276H157.554V31.2216H159.848V28.8276Z" fill="white"/>
<path d="M168.976 33.0171C167.529 33.0171 166.183 33.7652 165.335 35.062L165.285 33.2665H163.09V44.5381H165.385V37.0569C166.133 35.8599 167.33 35.062 168.527 35.062C169.424 35.062 170.023 35.4111 170.372 35.9098C170.871 36.7078 170.921 37.8051 170.921 38.8524V44.4883H173.215V38.6529C173.215 36.9572 173.015 35.4609 172.217 34.4136C171.519 33.5158 170.472 33.0171 168.976 33.0171Z" fill="white"/>
<path d="M184.586 34.5134C183.689 33.5159 182.292 32.9673 181.045 32.9673C177.704 32.9673 175.459 35.6605 175.459 38.7029C175.459 41.9946 177.803 44.4883 180.995 44.4883C182.292 44.4883 183.738 43.8898 184.536 42.7926V44.239C184.536 46.5332 182.94 47.4309 181.095 47.4309C179.748 47.4309 178.103 46.8324 177.005 46.0344L176.108 47.9796C177.554 48.977 179.449 49.4758 181.145 49.4758C183.24 49.4758 185.185 48.7277 186.182 46.8324C186.581 46.0344 186.831 45.037 186.831 43.8898V33.2665H184.636L184.586 34.5134ZM184.487 40.4485C183.888 41.7951 182.492 42.4435 181.344 42.4435C179.15 42.4435 177.803 40.7976 177.803 38.7527C177.803 36.9074 178.95 35.0121 181.394 35.0121C182.492 35.0121 183.738 35.5608 184.536 36.658V40.4485H184.487Z" fill="white"/>
<path d="M193.863 37.855C192.816 37.456 191.768 37.0071 191.768 36.2091C191.768 35.4111 192.417 34.8625 193.314 34.8625C194.112 34.8625 195.01 35.2615 195.559 35.7104L196.905 34.264C195.958 33.4162 194.661 32.9673 193.364 32.9673C191.419 32.9673 189.624 34.0645 189.624 36.3588C189.624 38.3537 191.319 39.052 192.766 39.6505C193.863 40.0994 194.91 40.4984 194.91 41.3462C194.91 42.3936 194.013 42.8923 193.015 42.8923C192.067 42.8923 191.269 42.4933 190.521 41.6455L189.025 42.9422C190.023 44.1392 191.469 44.7377 193.065 44.7377C195.21 44.7377 197.205 43.6903 197.205 41.1966C197.155 39.2515 195.359 38.4535 193.863 37.855Z" fill="white"/>
<path d="M205.633 33.0171C204.337 33.0171 202.84 33.6156 202.042 34.7627L201.993 33.2665H199.798V50.1241H202.092V43.3411C202.99 44.2888 204.337 44.7875 205.584 44.7875C208.925 44.7875 211.169 41.9447 211.169 38.9023C211.169 35.6106 208.825 33.0171 205.633 33.0171ZM205.185 42.7426C204.087 42.7426 202.84 42.194 202.042 41.0968V37.0569C202.641 35.7103 204.037 35.062 205.185 35.062C207.379 35.062 208.726 36.8574 208.726 38.8524C208.825 40.7477 207.628 42.7426 205.185 42.7426Z" fill="white"/>
<path d="M215.758 27.8301H213.464V44.5381H215.758V27.8301Z" fill="white"/>
<path d="M223.139 33.0171C221.543 33.0171 219.798 33.5158 218.601 34.0645L219.249 35.9098C220.197 35.4111 221.494 34.9123 222.79 34.9123C224.586 34.9123 225.334 35.8599 225.334 37.5058V37.8549C224.436 37.6554 223.688 37.6056 223.139 37.6056C220.696 37.6056 218.152 38.5033 218.152 41.3462C218.152 43.7401 220.047 44.8374 222.142 44.8374C223.538 44.8374 224.586 44.4384 225.434 43.4409L225.483 44.588H227.578V37.7053C227.628 34.7627 226.381 33.0171 223.139 33.0171ZM225.334 41.7452C224.486 42.4434 223.588 42.992 222.491 42.992C221.394 42.992 220.396 42.4933 220.396 41.2464C220.396 39.6504 222.092 39.3013 223.439 39.3013C223.987 39.3013 224.586 39.3512 225.334 39.5008V41.7452Z" fill="white"/>
<path d="M239.399 34.4137C238.75 33.5159 237.703 32.9673 236.207 32.9673C234.76 32.9673 233.414 33.7154 232.566 35.0121L232.516 33.2167H230.321V44.4883H232.616V37.0071C233.364 35.8101 234.561 35.0121 235.758 35.0121C236.655 35.0121 237.254 35.3613 237.603 35.86C238.102 36.658 238.152 37.7553 238.152 38.8026V44.4385H240.446V38.653C240.396 37.0071 240.147 35.5109 239.399 34.4137Z" fill="white"/>
<path d="M127.33 33.2666L122.891 44.5383H120.946L116.657 33.2666H119.201L122.044 41.5957H122.093L124.886 33.2666H127.33Z" fill="white"/>
<path d="M114.911 33.0171C113.714 33.0171 112.717 33.865 112.068 35.062L112.019 33.3163H109.824V44.588H112.118V36.9572C112.717 35.8599 113.565 35.2116 114.662 35.2116C115.061 35.2116 115.41 35.2614 115.709 35.4609V33.067C115.46 33.0171 115.211 33.0171 114.911 33.0171Z" fill="white"/>
<defs>
<linearGradient id="paint0_linear_0_352" x1="47.4327" y1="3.7987" x2="35.2767" y2="11.1981" gradientUnits="userSpaceOnUse">
<stop stop-color="#F4E353"/>
<stop offset="1" stop-color="#EDB031"/>
</linearGradient>
</defs>
</svg>
