<svg width="22" height="21" viewBox="0 0 22 21" fill="none" xmlns="http://www.w3.org/2000/svg">
<path d="M5.24857 20.1318V6.62537H0.763221V20.1318H5.24904H5.24857ZM3.00683 4.78161C4.57064 4.78161 5.54421 3.74448 5.54421 2.44835C5.51494 1.12269 4.57064 0.114502 3.03657 0.114502C1.50145 0.114502 0.49884 1.12269 0.49884 2.44823C0.49884 3.74436 1.47206 4.7815 2.97744 4.7815H3.00648L3.00683 4.78161ZM7.73127 20.1318H12.2163V12.59C12.2163 12.1869 12.2455 11.7827 12.364 11.4948C12.6881 10.6879 13.4261 9.85268 14.6655 9.85268C16.2881 9.85268 16.9375 11.0911 16.9375 12.907V20.1318H21.4224V12.3876C21.4224 8.2392 19.21 6.30872 16.259 6.30872C13.8397 6.30872 12.7771 7.66216 12.1868 8.58398H12.2166V6.62584H7.7315C7.79005 7.8929 7.73115 20.1323 7.73115 20.1323L7.73127 20.1318Z" fill="white"/>
</svg>
